<svg width="500" height="500" viewBox="0 0 500 500" fill="none" xmlns="http://www.w3.org/2000/svg">
<rect width="500" height="500" fill="#202D39"/>
<path fill-rule="evenodd" clip-rule="evenodd" d="M317.55 64L337.758 130.57L317.55 140.08L377.37 296.193C379.314 301.266 376.852 306.962 371.826 309.024L346.08 319.582L364.095 364.522C373.942 389.088 365.743 417.203 344.234 432.625C340.089 435.597 334.93 436.794 329.9 435.95L153.502 406.36V377.83L140.426 351.678L153.502 337.413L129.727 319.582L157.068 294.023L122 243.502V219.726H153.502V157.317V81.8313L317.55 64ZM294.199 162.32C304.096 165.552 312.041 173.022 315.875 182.702L346.08 258.955C322.585 267.611 296.997 252.829 292.76 228.151L280.698 157.911L294.199 162.32ZM277.283 217.61C273.758 209.709 262.543 209.709 259.019 217.61L233.148 275.598C253.527 292.208 282.774 292.208 303.154 275.598L277.283 217.61ZM321.92 414.527C319.412 412.804 319.217 409.173 321.525 407.19L323.257 405.702C323.666 405.351 324.015 404.936 324.292 404.473L325.709 402.099C327.329 399.386 331.028 398.837 333.366 400.962L333.489 401.074C334.677 402.154 336.312 402.598 337.883 402.268L342.898 401.212C345.122 400.743 347.383 401.835 348.4 403.868L350.098 407.265C350.192 407.453 350.316 407.625 350.465 407.774C351.698 409.007 350.825 411.115 349.081 411.115H346.674H340.634C338.338 411.115 336.059 411.511 333.897 412.285L326.107 415.072C324.705 415.573 323.147 415.371 321.92 414.527ZM172.69 262.522C170.46 262.522 168.48 263.949 167.775 266.064L163.933 277.59C163.331 279.395 163.257 281.333 163.718 283.178L164.246 285.287C164.97 288.185 166.951 290.607 169.648 291.891L173.76 293.849C176.372 295.093 179.394 295.144 182.047 293.991L184.284 293.019C188.498 291.186 190.822 286.623 189.825 282.137L187.806 273.052C187.316 270.844 184.76 269.817 182.877 271.072C180.737 272.498 177.871 270.964 177.871 268.393V266.666C177.871 264.377 176.016 262.522 173.727 262.522H172.69Z" fill="#E0CCF0"/>
<path fill-rule="evenodd" clip-rule="evenodd" d="M313.809 250.861C315.935 253.922 320.304 254.354 322.96 251.764L328.827 246.045C330.35 244.561 330.964 242.378 330.439 240.311L326.614 225.266C325.782 221.992 322.405 220.033 319.149 220.935L305.344 224.76C301.375 225.86 299.694 230.532 302.047 233.922L313.809 250.861ZM282.978 248.244C280.792 243.735 274.368 243.735 272.181 248.244L261.445 270.382C259.513 274.367 262.415 279 266.844 279H288.316C292.744 279 295.647 274.367 293.714 270.382L282.978 248.244Z" fill="#87B2DA"/>
<path d="M274.572 253.593C274.572 250.492 277.928 248.553 280.615 250.101C281.377 250.54 281.975 251.216 282.317 252.027L284.558 257.341C284.717 257.717 284.829 258.112 284.892 258.515L285.135 260.076C285.589 262.995 283.332 265.632 280.378 265.632C278.983 265.632 277.656 265.026 276.742 263.972L275.796 262.883C275.007 261.973 274.572 260.81 274.572 259.606V253.593Z" fill="#95D2C7"/>
<path d="M315.407 229.073C314.819 226.165 317.042 223.447 320.009 223.447C321.67 223.447 323.207 224.324 324.051 225.754L325.413 228.06C326.331 229.615 326.34 231.544 325.436 233.106L324.872 234.08C324.621 234.514 324.297 234.901 323.915 235.225C321.961 236.879 319.011 236.506 317.531 234.418L316.684 233.222C316.281 232.653 316.001 232.006 315.863 231.323L315.407 229.073Z" fill="#95D2C7"/>
<path d="M157.39 93.6724L251.805 80.5945L179.5 175.707L222.524 248.231L226.11 341.56L237.463 392.683L267.939 420.028L188.463 405.761L169.341 389.711L150.22 352.854L162.171 336.21L140.659 317.187L151.995 305.596C158.061 299.394 167.433 297.81 175.2 301.673L176.512 302.326H203.402L213.561 280.331L188.463 254.77L160.378 257.147L150.22 272.009L130.5 240.503V224.452L169.341 220.291L157.39 93.6724Z" fill="#FF9B9B"/>
<path d="M169.341 110.912L252.402 80L198.622 170.951L241.646 243.475L227.902 261.903L236.153 366.41C236.624 372.384 238.166 378.224 240.704 383.652L243.643 389.939C247.042 397.209 252.142 403.555 258.511 408.439L277.5 423L207.585 401.005L188.463 384.955L169.341 356.421L184.28 340.965L159.78 312.432L198.622 317.782L222.524 297.57V277.953L207.585 250.014L184.28 243.475H169.341V226.83L188.463 215.536L169.341 110.912Z" fill="#DDBBBB"/>
<path d="M313.5 146.176L279.775 135L247.233 146.176H215.283L171.5 176.176L183.925 195L211.142 171.471L247.233 166.765L276.225 151.471L313.5 146.176Z" fill="#577096"/>
<path d="M263.8 146.176L251.375 151.471L225.933 154.412H207.592L177.417 175.588L185.108 189.706L207.592 167.353L247.233 163.824L283.325 146.176H263.8Z" fill="#335A96"/>
<path d="M277.5 79.3465L310.116 74L328.5 123.901L310.116 134L277.5 123.901L289.36 98.9505L277.5 79.3465Z" fill="#EEDBB6"/>
<path d="M286.395 82.3168H306.558L323.163 116.178L313.081 121.525L295.884 116.178V87.0693L286.395 82.3168Z" fill="#FBE8C2"/>
<path d="M352.998 241L372.499 293.108C374.618 298.77 371.268 305.002 365.378 306.358L329.304 314.664C328.205 314.917 327.593 313.44 328.549 312.841L352.998 297.548L357.128 280.286L352.998 241Z" fill="#EEDBB6"/>
<path d="M359.617 275.022C359.403 273.701 361.202 273.093 361.833 274.274L364.74 279.716C364.82 279.865 364.882 280.023 364.926 280.186L367.966 291.53C368.912 295.059 367.858 298.823 365.217 301.348L362.386 304.054C361.728 304.683 360.911 305.12 360.023 305.319L348.244 307.954C348.109 307.985 347.97 308 347.83 308C345.873 308 345.2 305.395 346.912 304.446L354.119 300.451C355.054 299.933 355.745 299.064 356.039 298.036L358.344 289.969C358.434 289.652 358.493 289.327 358.52 288.999L359.628 275.307C359.636 275.212 359.632 275.117 359.617 275.022Z" fill="#FBE8C2"/>
</svg>
